<svg width="22" height="20" viewBox="0 0 22 20" fill="none" xmlns="http://www.w3.org/2000/svg">
<path d="M1.06452 0C0.4766 0 0 0.497461 0 1.11111C0 1.72476 0.4766 2.22222 1.06452 2.22222H20.9355C21.5234 2.22222 22 1.72476 22 1.11111C22 0.497461 21.5234 0 20.9355 0H1.06452Z" fill="#6666CC"/>
<path d="M1.06452 8.88889C0.4766 8.88889 0 9.38635 0 10C0 10.6136 0.4766 11.1111 1.06452 11.1111H20.9355C21.5234 11.1111 22 10.6136 22 10C22 9.38635 21.5234 8.88889 20.9355 8.88889H1.06452Z" fill="#6666CC"/>
<path d="M1.06452 17.7778C0.4766 17.7778 0 18.2752 0 18.8889C0 19.5025 0.4766 20 1.06452 20H20.9355C21.5234 20 22 19.5025 22 18.8889C22 18.2752 21.5234 17.7778 20.9355 17.7778H1.06452Z" fill="#6666CC"/>
</svg>
