<svg width="36" height="36" viewBox="0 0 36 36" fill="none" xmlns="http://www.w3.org/2000/svg">
<circle cx="18" cy="18" r="18" fill="#6666CC"/>
<path d="M28 17.99C28 12.475 23.52 8 18 8C12.48 8 8 12.475 8 17.99C8 21.0275 9.38 23.765 11.54 25.6025C11.56 25.6225 11.58 25.6225 11.58 25.6425C11.76 25.7825 11.94 25.9225 12.14 26.0625C12.24 26.1225 12.32 26.2012 12.42 26.2812C14.0726 27.4017 16.0234 28.0004 18.02 28C20.0166 28.0004 21.9674 27.4017 23.62 26.2812C23.72 26.2212 23.8 26.1425 23.9 26.0813C24.08 25.9425 24.28 25.8025 24.46 25.6625C24.48 25.6425 24.5 25.6425 24.5 25.6225C26.62 23.7637 28 21.0275 28 17.99V17.99ZM18 26.7413C16.12 26.7413 14.4 26.1412 12.98 25.1425C13 24.9825 13.04 24.8238 13.08 24.6638C13.1992 24.2301 13.374 23.8138 13.6 23.425C13.82 23.045 14.08 22.705 14.4 22.405C14.7 22.105 15.06 21.8263 15.42 21.6063C15.8 21.3863 16.2 21.2262 16.64 21.1062C17.0834 20.9867 17.5408 20.9266 18 20.9275C19.3633 20.9178 20.6765 21.4408 21.66 22.385C22.12 22.845 22.48 23.385 22.74 24.0038C22.88 24.3638 22.98 24.7437 23.04 25.1425C21.564 26.1802 19.8043 26.7384 18 26.7413ZM14.94 17.4912C14.7638 17.0878 14.6752 16.6515 14.68 16.2112C14.68 15.7725 14.76 15.3325 14.94 14.9325C15.12 14.5325 15.36 14.1737 15.66 13.8737C15.96 13.5737 16.32 13.335 16.72 13.155C17.12 12.975 17.56 12.895 18 12.895C18.46 12.895 18.88 12.975 19.28 13.155C19.68 13.335 20.04 13.575 20.34 13.8737C20.64 14.1737 20.88 14.5337 21.06 14.9325C21.24 15.3325 21.32 15.7725 21.32 16.2112C21.32 16.6712 21.24 17.0913 21.06 17.49C20.8863 17.8841 20.6423 18.2433 20.34 18.55C20.0332 18.8519 19.674 19.0954 19.28 19.2688C18.4535 19.6084 17.5265 19.6084 16.7 19.2688C16.306 19.0954 15.9468 18.8519 15.64 18.55C15.3373 18.2477 15.0991 17.8871 14.94 17.49V17.4912ZM24.22 24.1238C24.22 24.0838 24.2 24.0638 24.2 24.0238C24.0033 23.398 23.7134 22.8055 23.34 22.2663C22.9663 21.723 22.507 21.2438 21.98 20.8475C21.5775 20.5447 21.1413 20.2897 20.68 20.0875C20.8899 19.9491 21.0843 19.7886 21.26 19.6087C21.5582 19.3144 21.82 18.9854 22.04 18.6288C22.4829 17.901 22.7117 17.0631 22.7 16.2112C22.7062 15.5806 22.5837 14.9554 22.34 14.3737C22.0994 13.8133 21.7531 13.3044 21.32 12.875C20.8876 12.45 20.3786 12.1107 19.82 11.875C19.2374 11.6317 18.6113 11.5097 17.98 11.5162C17.3486 11.5101 16.7225 11.6326 16.14 11.8763C15.5766 12.1115 15.0664 12.458 14.64 12.895C14.2151 13.327 13.8757 13.8355 13.64 14.3937C13.3963 14.9754 13.2738 15.6006 13.28 16.2313C13.28 16.6713 13.34 17.0913 13.46 17.49C13.58 17.91 13.74 18.29 13.96 18.6488C14.16 19.0088 14.44 19.3288 14.74 19.6288C14.92 19.8088 15.12 19.9675 15.34 20.1075C14.8773 20.3151 14.4409 20.5769 14.04 20.8875C13.52 21.2875 13.06 21.7662 12.68 22.2862C12.3028 22.8233 12.0126 23.4164 11.82 24.0438C11.8 24.0838 11.8 24.1237 11.8 24.1437C10.22 22.545 9.24 20.3875 9.24 17.99C9.24 13.175 13.18 9.23875 18 9.23875C22.82 9.23875 26.76 13.175 26.76 17.99C26.7574 20.2899 25.8441 22.4953 24.22 24.1238V24.1238Z" fill="white"/>
</svg>
