<svg width="24" height="24" viewBox="0 0 24 24" fill="none" xmlns="http://www.w3.org/2000/svg">
<path d="M19.8475 4H15.3575L13.9103 7.61803L16.2352 9.16795C16.5134 9.35342 16.6805 9.66565 16.6805 10C16.678 10.0936 16.6805 10.001 16.6805 10.001V10.002L16.6805 10.0043L16.6805 10.0093L16.6803 10.0217C16.6802 10.0309 16.6799 10.0421 16.6795 10.0552C16.6786 10.0814 16.6771 10.1153 16.6744 10.1564C16.6689 10.2385 16.6586 10.3494 16.6392 10.4852C16.6004 10.7565 16.5252 11.1281 16.3792 11.5662C16.0859 12.4459 15.5098 13.5849 14.3876 14.7071C13.2655 15.8293 12.1265 16.4054 11.2467 16.6987C10.8086 16.8447 10.437 16.9199 10.1657 16.9587C10.03 16.9781 9.91898 16.9884 9.83688 16.9939C9.79578 16.9966 9.76188 16.9981 9.73568 16.999C9.72258 16.9994 9.71138 16.9997 9.70218 16.9998L9.68988 17H9.68478H9.68258H9.68148C9.68148 17 9.56988 16.9939 9.68048 17C9.30168 17 8.95548 16.786 8.78608 16.4472L8.11638 15.1078L3.68048 15.8471V20.167C5.79158 20.4723 11.4931 20.7732 15.9734 16.2929C20.4537 11.8126 20.1528 6.1111 19.8475 4ZM14.6068 10.4861L12.8009 9.28213C12.014 8.75751 11.7021 7.75338 12.0534 6.87525L13.5006 3.25722C13.8043 2.4979 14.5397 2 15.3575 2H19.8997C20.8082 2 21.6634 2.63116 21.8126 3.6169C22.1519 5.8595 22.6137 12.481 17.3876 17.7071C12.1615 22.9332 5.53998 22.4714 3.29738 22.1321C2.31168 21.9829 1.68048 21.1277 1.68048 20.2192V15.8471C1.68048 14.8694 2.38728 14.0351 3.35168 13.8743L7.78758 13.135C8.65368 12.9907 9.51258 13.4281 9.90518 14.2134L10.2517 14.9064C10.3606 14.8796 10.4822 14.8453 10.6143 14.8013C11.2346 14.5946 12.0956 14.1707 12.9734 13.2929C13.8512 12.4151 14.275 11.5541 14.4818 10.9338C14.5377 10.7662 14.5779 10.6154 14.6068 10.4861Z" fill="white"/>
</svg>
