<svg width="25" height="24" viewBox="0 0 25 24" fill="none" xmlns="http://www.w3.org/2000/svg">
<g clip-path="url(#clip0_105_7452)">
<path d="M24.0861 4.13794H0.913812C0.685297 4.13794 0.5 4.32319 0.5 4.5517V19.4482C0.5 19.6767 0.685297 19.862 0.913812 19.862H24.0862C24.3147 19.862 24.5 19.6767 24.5 19.4482V4.5517C24.5 4.32319 24.3147 4.13794 24.0861 4.13794Z" fill="#82C3D2"/>
<path d="M3.28972 6.02093C3.25227 5.86235 3.24294 5.8039 3.3141 5.73279C3.34879 5.6981 3.34879 5.6419 3.3141 5.60721C3.27941 5.57252 3.22321 5.57252 3.18852 5.60721C3.04452 5.75126 3.07888 5.90074 3.11615 6.05904C3.00261 6.02196 2.88486 6.04947 2.82177 6.12907C2.79046 6.16877 2.7299 6.28015 2.84338 6.45799C2.86977 6.49929 2.92433 6.51143 2.96601 6.48527C3.0074 6.45888 3.01944 6.4039 2.99305 6.36265C2.95049 6.29566 2.94922 6.25436 2.96113 6.23927C2.97519 6.22141 3.01879 6.21199 3.06444 6.22816C3.09393 6.23838 3.16246 6.27377 3.16246 6.38065C3.16246 6.466 3.12299 6.54424 3.05418 6.59505C2.98522 6.64605 2.89597 6.66044 2.80996 6.63372C2.70374 6.60129 2.62954 6.4894 2.62954 6.36157C2.62954 6.27011 2.64913 6.17768 2.68513 6.09668C2.69085 6.08472 2.8266 5.80352 2.86157 5.69871C2.93071 5.49138 2.86044 5.38713 2.81249 5.34358C2.74832 5.28513 2.65452 5.27055 2.5738 5.30594C2.56152 5.31138 2.5514 5.31926 2.54076 5.32657C2.53012 5.31921 2.51994 5.31138 2.50771 5.30594C2.42704 5.27055 2.33329 5.28513 2.26902 5.34358C2.22107 5.38713 2.1508 5.49143 2.21994 5.69871C2.25491 5.80352 2.39062 6.08472 2.39512 6.0941C2.43229 6.17772 2.45193 6.27016 2.45193 6.36161C2.45193 6.48949 2.37777 6.60133 2.27151 6.63377C2.18516 6.66044 2.09619 6.64624 2.02729 6.5951C1.95848 6.54424 1.91901 6.46605 1.91901 6.38069C1.91901 6.27382 1.98754 6.23847 2.01702 6.22821C2.06282 6.21208 2.10618 6.22141 2.12034 6.23932C2.13224 6.25441 2.13098 6.29571 2.08841 6.36269C2.06202 6.40399 2.07407 6.45897 2.11546 6.48532C2.15718 6.51171 2.21193 6.49938 2.23808 6.45804C2.35152 6.28019 2.29101 6.16886 2.25969 6.12911C2.19655 6.04952 2.07885 6.02201 1.96532 6.05908C2.00263 5.90088 2.03694 5.7513 1.89294 5.60726C1.85826 5.57257 1.80205 5.57257 1.76737 5.60726C1.73268 5.64194 1.73268 5.69815 1.76737 5.73283C1.83848 5.80394 1.82924 5.8624 1.79174 6.02097C1.76924 6.11599 1.7413 6.23449 1.7413 6.38055C1.7413 6.47772 1.77548 6.57068 1.83295 6.64704H1.83009C1.78101 6.64704 1.74126 6.68674 1.74126 6.73586C1.74126 6.78494 1.78096 6.82469 1.83009 6.82469H1.83295C1.77548 6.90105 1.7413 6.99396 1.7413 7.09113C1.7413 7.23719 1.76924 7.35569 1.7917 7.45075C1.82915 7.60933 1.83848 7.66778 1.76732 7.73889C1.73263 7.77358 1.73263 7.82978 1.76732 7.86447C1.78466 7.88181 1.8074 7.89049 1.83013 7.89049C1.85282 7.89049 1.8756 7.88181 1.89294 7.86447C2.03694 7.72042 2.00259 7.57089 1.96532 7.41264C2.07885 7.44958 2.1966 7.42221 2.25969 7.34261C2.29101 7.30291 2.35157 7.19153 2.23808 7.01369C2.21179 6.97239 2.1569 6.96011 2.11546 6.98641C2.07407 7.0128 2.06202 7.06778 2.08841 7.10903C2.13098 7.17602 2.13224 7.21732 2.12034 7.23241C2.10623 7.25008 2.06282 7.25946 2.01702 7.24352C1.98754 7.2333 1.91901 7.19791 1.91901 7.09103C1.91901 7.00568 1.95848 6.92744 2.02729 6.87663C2.09624 6.82563 2.1854 6.81105 2.27151 6.83796C2.37773 6.87039 2.45193 6.98228 2.45193 7.11011C2.45193 7.20157 2.43233 7.294 2.39512 7.37763L1.81335 8.68642C1.76554 8.79395 1.74126 8.90833 1.74126 9.02608C1.74126 9.17762 1.81016 9.316 1.91863 9.40047C1.81021 9.48494 1.74126 9.62331 1.74126 9.77486C1.74126 9.89265 1.76559 10.007 1.81335 10.1145L2.39502 11.4232C2.43219 11.5068 2.45183 11.5993 2.45183 11.6907C2.45183 11.8186 2.37768 11.9304 2.27141 11.9629C2.18507 11.9898 2.0961 11.9754 2.02719 11.9242C1.95838 11.8734 1.91891 11.7952 1.91891 11.7098C1.91891 11.6029 1.98744 11.5676 2.01693 11.5573C2.06273 11.5413 2.10609 11.5505 2.12024 11.5684C2.13215 11.5835 2.13088 11.6248 2.08832 11.6918C2.06193 11.7331 2.07398 11.7881 2.11537 11.8144C2.15709 11.8408 2.21183 11.8286 2.23799 11.7872C2.35143 11.6093 2.29091 11.498 2.2596 11.4582C2.19646 11.3786 2.07876 11.3512 1.96523 11.3882C2.00254 11.23 2.03685 11.0804 1.89285 10.9364C1.85816 10.9017 1.80196 10.9017 1.76727 10.9364C1.73259 10.9711 1.73259 11.0273 1.76727 11.0619C1.83838 11.1331 1.82915 11.1915 1.79165 11.3501C1.7692 11.4452 1.74126 11.5637 1.74126 11.7097C1.74126 11.8069 1.77543 11.8998 1.8329 11.9762H1.83004C1.78096 11.9762 1.74121 12.0159 1.74121 12.065C1.74121 12.1142 1.78091 12.1539 1.83004 12.1539H1.8329C1.77538 12.2302 1.74126 12.3231 1.74126 12.4203C1.74126 12.5664 1.7692 12.6849 1.79165 12.78C1.8291 12.9385 1.83843 12.997 1.76727 13.0681C1.73259 13.1028 1.73259 13.159 1.76727 13.1937C1.78462 13.211 1.80735 13.2197 1.83009 13.2197C1.85277 13.2197 1.87555 13.211 1.8929 13.1937C2.0369 13.0496 2.00254 12.9001 1.96527 12.7419C2.0788 12.7788 2.19655 12.7514 2.25965 12.6718C2.29096 12.6321 2.35152 12.5207 2.23804 12.3429C2.21174 12.3016 2.15685 12.2893 2.11541 12.3156C2.07402 12.342 2.06198 12.397 2.08837 12.4382C2.13093 12.5052 2.13219 12.5465 2.12029 12.5616C2.10618 12.5795 2.06277 12.5889 2.01698 12.5727C1.98749 12.5625 1.91896 12.5271 1.91896 12.4202C1.91896 12.3349 1.95843 12.2566 2.02724 12.2058C2.09619 12.1548 2.18535 12.1403 2.27146 12.1672C2.37768 12.1996 2.45188 12.3115 2.45188 12.4393C2.45188 12.5308 2.43229 12.6232 2.39507 12.7068L1.81335 14.0158C1.76554 14.1233 1.74126 14.2377 1.74126 14.3554C1.74126 14.507 1.81016 14.6453 1.91863 14.7298C1.81021 14.8143 1.74126 14.9527 1.74126 15.1042C1.74126 15.222 1.76559 15.3363 1.81335 15.4439L2.39502 16.7526C2.43219 16.8362 2.45183 16.9286 2.45183 17.0201C2.45183 17.148 2.37768 17.2598 2.27141 17.2922C2.18507 17.3191 2.0961 17.3046 2.02719 17.2536C1.95838 17.2027 1.91891 17.1245 1.91891 17.0392C1.91891 16.9323 1.98744 16.8969 2.01693 16.8867C2.06273 16.8707 2.10609 16.8799 2.12024 16.8978C2.13215 16.9129 2.13088 16.9542 2.08832 17.0212C2.06193 17.0625 2.07398 17.1174 2.11537 17.1438C2.15709 17.1702 2.21183 17.158 2.23799 17.1165C2.35143 16.9387 2.29091 16.8273 2.2596 16.7876C2.19646 16.7078 2.07876 16.6805 1.96523 16.7175C2.00254 16.5593 2.03685 16.4098 1.89285 16.2657C1.85816 16.231 1.80196 16.231 1.76727 16.2657C1.73259 16.3004 1.73259 16.3566 1.76727 16.3913C1.83838 16.4624 1.82915 16.5209 1.79165 16.6794C1.7692 16.7745 1.74126 16.893 1.74126 17.039C1.74126 17.1782 1.80796 17.3108 1.91948 17.3943C1.80796 17.4779 1.74126 17.6104 1.74126 17.7496C1.74126 17.8957 1.7692 18.0142 1.79165 18.1093C1.8291 18.2678 1.83843 18.3263 1.76727 18.3974C1.73259 18.4321 1.73259 18.4883 1.76727 18.523C1.78462 18.5403 1.80735 18.549 1.83009 18.549C1.85277 18.549 1.87555 18.5403 1.8929 18.523C2.0369 18.3789 2.00254 18.2294 1.96527 18.0712C2.0788 18.1081 2.19655 18.0807 2.25965 18.0011C2.29096 17.9614 2.35152 17.85 2.23804 17.6722C2.21174 17.6309 2.15685 17.6188 2.11541 17.6449C2.07402 17.6713 2.06198 17.7263 2.08837 17.7675C2.13093 17.8345 2.13219 17.8758 2.12029 17.8909C2.10618 17.9088 2.06277 17.918 2.01698 17.902C1.98749 17.8918 1.91896 17.8564 1.91896 17.7495C1.91896 17.6642 1.95843 17.586 2.02724 17.5351C2.09619 17.4841 2.18535 17.4698 2.27146 17.4965C2.37768 17.5289 2.45188 17.6408 2.45188 17.7686C2.45188 17.8601 2.43229 17.9525 2.39629 18.0335C2.39057 18.0455 2.25482 18.3267 2.21985 18.4315C2.15071 18.6388 2.22098 18.7431 2.26893 18.7866C2.30994 18.8239 2.36277 18.8435 2.41677 18.8435C2.44738 18.8435 2.47841 18.8371 2.50766 18.8243C2.51994 18.8189 2.53007 18.811 2.54071 18.8037C2.55135 18.811 2.56152 18.8189 2.57376 18.8243C2.60296 18.8371 2.63404 18.8435 2.66465 18.8435C2.71851 18.8435 2.77143 18.8239 2.81249 18.7866C2.86044 18.7431 2.93071 18.6388 2.86157 18.4315C2.8266 18.3267 2.6909 18.0455 2.6864 18.0361C2.64922 17.9525 2.62958 17.86 2.62958 17.7686C2.62958 17.6407 2.70374 17.5288 2.81001 17.4964C2.8964 17.4697 2.98532 17.4841 3.05422 17.5351C3.12304 17.586 3.1625 17.6641 3.1625 17.7495C3.1625 17.8564 3.09397 17.8917 3.06449 17.902C3.01888 17.918 2.97519 17.9088 2.96118 17.8909C2.94927 17.8758 2.95054 17.8345 2.9931 17.7675C3.01949 17.7262 3.00744 17.6713 2.96605 17.6449C2.92457 17.6189 2.86986 17.631 2.84343 17.6722C2.72999 17.85 2.79051 17.9613 2.82182 18.0011C2.88496 18.0807 3.00266 18.1081 3.11619 18.0711C3.07888 18.2293 3.04457 18.3789 3.18857 18.5229C3.20591 18.5403 3.22865 18.549 3.25138 18.549C3.27411 18.549 3.29685 18.5403 3.31419 18.5229C3.34888 18.4882 3.34888 18.432 3.31419 18.3974C3.24308 18.3262 3.25232 18.2678 3.28982 18.1092C3.31227 18.0142 3.34021 17.8957 3.34021 17.7496C3.34021 17.6104 3.2735 17.4778 3.16199 17.3943C3.2735 17.3108 3.34021 17.1782 3.34021 17.039C3.34021 16.8929 3.31227 16.7744 3.28982 16.6793C3.25236 16.5208 3.24304 16.4623 3.31419 16.3912C3.34888 16.3565 3.34888 16.3003 3.31419 16.2656C3.2795 16.2309 3.2233 16.2309 3.18861 16.2656C3.04461 16.4097 3.07897 16.5592 3.11624 16.7175C3.00271 16.6804 2.88496 16.7077 2.82186 16.7875C2.79055 16.8272 2.72999 16.9386 2.84347 17.1164C2.86986 17.1577 2.92443 17.1698 2.9661 17.1437C3.00749 17.1173 3.01954 17.0623 2.99315 17.0211C2.95058 16.9541 2.94932 16.9128 2.96122 16.8977C2.97529 16.8798 3.01888 16.8706 3.06454 16.8866C3.09402 16.8968 3.16255 16.9322 3.16255 17.0391C3.16255 17.1244 3.12308 17.2027 3.05427 17.2535C2.98532 17.3045 2.89607 17.319 2.81005 17.2921C2.70383 17.2597 2.62963 17.1478 2.62963 17.02C2.62963 16.9285 2.64922 16.8361 2.68644 16.7525L3.26811 15.4438C3.31593 15.3362 3.34021 15.2219 3.34021 15.1041C3.34021 14.9526 3.2713 14.8142 3.16283 14.7297C3.27125 14.6453 3.34021 14.5069 3.34021 14.3553C3.34021 14.2375 3.31588 14.1232 3.26811 14.0157L2.68649 12.7071C2.64932 12.6234 2.62968 12.531 2.62968 12.4396C2.62968 12.3117 2.70383 12.1998 2.8101 12.1674C2.89649 12.1407 2.98541 12.1551 3.05432 12.2061C3.12313 12.2569 3.1626 12.3351 3.1626 12.4205C3.1626 12.5274 3.09407 12.5627 3.06458 12.573C3.01897 12.5891 2.97529 12.5798 2.96127 12.5619C2.94936 12.5468 2.95063 12.5055 2.99319 12.4385C3.01958 12.3972 3.00754 12.3422 2.96615 12.3159C2.92466 12.2898 2.86996 12.302 2.84352 12.3431C2.73008 12.521 2.7906 12.6323 2.82191 12.6721C2.88505 12.7516 3.00276 12.7791 3.11629 12.7421C3.07897 12.9003 3.04466 13.0499 3.18866 13.1939C3.206 13.2113 3.22874 13.2199 3.25147 13.2199C3.27421 13.2199 3.29694 13.2113 3.31429 13.1939C3.34897 13.1592 3.34897 13.103 3.31429 13.0683C3.24318 12.9972 3.25241 12.9388 3.28991 12.7802C3.31236 12.6851 3.3403 12.5666 3.3403 12.4206C3.3403 12.3234 3.30613 12.2304 3.24866 12.1541H3.25152C3.3006 12.1541 3.34035 12.1144 3.34035 12.0653C3.34035 12.0162 3.30065 11.9764 3.25152 11.9764H3.24866C3.30618 11.9001 3.3403 11.8072 3.3403 11.7099C3.3403 11.5639 3.31236 11.4454 3.28991 11.3503C3.25246 11.1917 3.24313 11.1333 3.31429 11.0622C3.34897 11.0275 3.34897 10.9713 3.31429 10.9366C3.2796 10.9019 3.2234 10.9019 3.18871 10.9366C3.04471 11.0807 3.07907 11.2302 3.11633 11.3884C3.0028 11.3515 2.88505 11.3789 2.82196 11.4585C2.79065 11.4982 2.73008 11.6095 2.84357 11.7874C2.86996 11.8287 2.92452 11.8407 2.96619 11.8147C3.00758 11.7883 3.01963 11.7333 2.99324 11.692C2.95068 11.6251 2.94941 11.5838 2.96132 11.5687C2.97538 11.5508 3.01897 11.5416 3.06463 11.5576C3.09411 11.5678 3.16265 11.6032 3.16265 11.71C3.16265 11.7954 3.12318 11.8736 3.05436 11.9244C2.98541 11.9754 2.89616 11.9898 2.81015 11.9631C2.70393 11.9307 2.62972 11.8188 2.62972 11.691C2.62972 11.5995 2.64932 11.5071 2.68654 11.4234L3.26821 10.1147C3.31602 10.0072 3.3403 9.89284 3.3403 9.77509C3.3403 9.62355 3.2714 9.48517 3.16293 9.4007C3.27135 9.31623 3.3403 9.17786 3.3403 9.02631C3.3403 8.90852 3.31597 8.79419 3.26821 8.68666L2.68654 7.37796C2.64937 7.29433 2.62972 7.20189 2.62972 7.11044C2.62972 6.98257 2.70388 6.87072 2.81015 6.83829C2.89654 6.81157 2.98546 6.82596 3.05436 6.87696C3.12318 6.92782 3.16265 7.006 3.16265 7.09136C3.16265 7.19824 3.09411 7.23358 3.06463 7.24385C3.01902 7.25983 2.97533 7.25041 2.96132 7.23274C2.94941 7.21764 2.95068 7.17635 2.99324 7.10936C3.01963 7.06807 3.00758 7.01308 2.96619 6.98674C2.92471 6.96072 2.87001 6.97268 2.84357 7.01397C2.73013 7.19182 2.79065 7.30314 2.82196 7.34289C2.8851 7.42249 3.0028 7.44991 3.11633 7.41292C3.07902 7.57113 3.04471 7.72071 3.18871 7.86475C3.20605 7.8821 3.22879 7.89077 3.25152 7.89077C3.27425 7.89077 3.29699 7.8821 3.31433 7.86475C3.34902 7.83006 3.34902 7.77386 3.31433 7.73917C3.24322 7.66806 3.25246 7.60961 3.28996 7.45103C3.31241 7.35597 3.34035 7.23747 3.34035 7.09141C3.34035 6.99424 3.30618 6.90128 3.24871 6.82493H3.25157C3.30065 6.82493 3.3404 6.78522 3.3404 6.7361C3.3404 6.68702 3.30069 6.64727 3.25157 6.64727H3.24871C3.30622 6.57091 3.34035 6.47805 3.34035 6.38079C3.34007 6.23449 3.31213 6.11599 3.28972 6.02093ZM2.38832 5.64241C2.35677 5.54773 2.36779 5.49377 2.3886 5.47483C2.40219 5.46199 2.42282 5.46251 2.4359 5.46841C2.45193 5.47554 2.45193 5.48683 2.45193 5.49237C2.45193 5.54144 2.49163 5.58119 2.54076 5.58119C2.58983 5.58119 2.62958 5.54149 2.62958 5.49237C2.62958 5.48683 2.62958 5.47554 2.64562 5.46841C2.65846 5.46251 2.67894 5.46199 2.69291 5.47483C2.71372 5.49377 2.72474 5.54773 2.69319 5.64241C2.67022 5.71108 2.58712 5.88986 2.5408 5.9869C2.49543 5.89211 2.41143 5.71155 2.38832 5.64241ZM2.54071 9.30733C2.56621 9.34197 2.59504 9.37422 2.6301 9.40047C2.59504 9.42676 2.56621 9.45897 2.54071 9.49361C2.51521 9.45897 2.48638 9.42672 2.45132 9.40047C2.48638 9.37417 2.51521 9.34202 2.54071 9.30733ZM2.54071 14.6366C2.56621 14.6713 2.59504 14.7035 2.6301 14.7298C2.59504 14.7561 2.56621 14.7883 2.54071 14.8229C2.51521 14.7883 2.48638 14.756 2.45132 14.7298C2.48638 14.7035 2.51521 14.6714 2.54071 14.6366ZM2.69305 18.4879C2.7246 18.5826 2.71358 18.6365 2.69277 18.6555C2.6788 18.6681 2.65832 18.6676 2.64547 18.6619C2.62944 18.6547 2.62944 18.6435 2.62944 18.6379C2.62944 18.5888 2.58974 18.5491 2.54062 18.5491C2.49149 18.5491 2.45179 18.5888 2.45179 18.6379C2.45179 18.6434 2.45179 18.6547 2.43576 18.6619C2.42273 18.6676 2.4021 18.6682 2.38846 18.6555C2.36765 18.6365 2.35663 18.5826 2.38818 18.4879C2.41115 18.4192 2.49426 18.2404 2.54057 18.1434C2.58594 18.2381 2.66994 18.4187 2.69305 18.4879ZM2.62926 17.3944C2.59565 17.4206 2.56583 17.4519 2.54071 17.4873C2.51563 17.4519 2.48577 17.4206 2.45216 17.3944C2.48577 17.3683 2.51558 17.337 2.54071 17.3016C2.56579 17.337 2.5956 17.3683 2.62926 17.3944ZM3.1056 15.3716L2.54066 16.6427L1.97573 15.3716C1.93855 15.288 1.91891 15.1956 1.91891 15.1041C1.91891 14.9762 1.99307 14.8643 2.09934 14.832C2.18568 14.8052 2.27474 14.8196 2.34355 14.8706C2.41237 14.9215 2.45183 14.9997 2.45183 15.085C2.45183 15.1919 2.3833 15.2273 2.35382 15.2375C2.30802 15.2535 2.26448 15.2443 2.25051 15.2264C2.2386 15.2113 2.23987 15.17 2.28243 15.103C2.30882 15.0617 2.29677 15.0068 2.25538 14.9804C2.2139 14.9544 2.15919 14.9665 2.13276 15.0077C2.01932 15.1855 2.07984 15.2969 2.11115 15.3366C2.17546 15.4178 2.29644 15.4457 2.41213 15.4053C2.4253 15.4007 2.43866 15.3951 2.45183 15.3884V15.613C2.45183 15.6129 2.45169 15.6128 2.45169 15.6128C2.44902 15.5661 2.4103 15.5292 2.36305 15.5292C2.31398 15.5292 2.27423 15.5689 2.27423 15.618C2.27423 15.6759 2.31473 15.7764 2.45183 15.8076V15.9733C2.45183 16.0223 2.49154 16.0621 2.54066 16.0621C2.58979 16.0621 2.62949 16.0224 2.62949 15.9733V15.8076C2.7666 15.7764 2.8071 15.6759 2.8071 15.618C2.8071 15.5689 2.76749 15.5263 2.71846 15.5263C2.66938 15.5263 2.62982 15.5631 2.62982 15.6121C2.62977 15.6123 2.62949 15.6125 2.62944 15.6127V15.3885C2.64262 15.3952 2.65597 15.4008 2.66915 15.4054C2.78483 15.4458 2.90577 15.4178 2.97013 15.3367C3.00144 15.297 3.06201 15.1856 2.94852 15.0078C2.92213 14.9665 2.86733 14.9543 2.8259 14.9805C2.78451 15.0069 2.77246 15.0619 2.79885 15.1031C2.84141 15.1701 2.84268 15.2114 2.83077 15.2265C2.81671 15.2444 2.77316 15.2536 2.72746 15.2376C2.69797 15.2274 2.62944 15.192 2.62944 15.0851C2.62944 14.9998 2.66891 14.9215 2.73772 14.8707C2.80668 14.8197 2.89593 14.8051 2.98194 14.8321C3.08816 14.8645 3.16236 14.9764 3.16236 15.1042C3.16246 15.1956 3.14286 15.288 3.1056 15.3716ZM3.1056 14.0879C3.14277 14.1715 3.16241 14.264 3.16241 14.3554C3.16241 14.4833 3.08826 14.5951 2.98199 14.6276C2.89579 14.6545 2.80658 14.6399 2.73777 14.5889C2.66896 14.5381 2.62949 14.4599 2.62949 14.3745C2.62949 14.2676 2.69802 14.2323 2.72751 14.222C2.77321 14.206 2.8168 14.2152 2.83082 14.2331C2.84272 14.2482 2.84146 14.2895 2.7989 14.3565C2.77251 14.3978 2.78455 14.4527 2.82594 14.4791C2.86766 14.5055 2.92241 14.4933 2.94857 14.4518C3.06201 14.274 3.00149 14.1627 2.97018 14.1229C2.90582 14.0417 2.78488 14.0141 2.66919 14.0543C2.65602 14.0588 2.64266 14.0645 2.62949 14.0712V13.8465L2.62963 13.8468C2.6323 13.8934 2.67102 13.9304 2.71827 13.9304C2.76735 13.9304 2.8071 13.8907 2.8071 13.8416C2.8071 13.7836 2.7666 13.6831 2.62949 13.652V13.4863C2.62949 13.4372 2.58979 13.3975 2.54066 13.3975C2.49154 13.3975 2.45183 13.4372 2.45183 13.4863V13.652C2.31473 13.6831 2.27423 13.7836 2.27423 13.8416C2.27423 13.8907 2.31383 13.9333 2.36287 13.9333C2.41194 13.9333 2.45151 13.8965 2.45151 13.8474C2.45155 13.8473 2.45183 13.8471 2.45183 13.8471L2.45188 14.0711C2.43871 14.0644 2.42535 14.0588 2.41218 14.0542C2.29649 14.0141 2.17551 14.0417 2.11119 14.1229C2.07988 14.1626 2.01932 14.274 2.1328 14.4518C2.15919 14.4931 2.21399 14.5051 2.25543 14.4791C2.29682 14.4527 2.30887 14.3977 2.28248 14.3565C2.23991 14.2895 2.23865 14.2482 2.25055 14.2331C2.26452 14.2152 2.30807 14.206 2.35387 14.222C2.38335 14.2322 2.45188 14.2676 2.45188 14.3745C2.45188 14.4598 2.41241 14.5381 2.3436 14.5889C2.27465 14.6399 2.18559 14.6544 2.09938 14.6275C1.99316 14.5951 1.91896 14.4832 1.91896 14.3554C1.91896 14.2639 1.93855 14.1715 1.97577 14.0879L2.54071 12.8168L3.1056 14.0879ZM2.62926 12.0652C2.59565 12.0913 2.56583 12.1226 2.54071 12.158C2.51563 12.1226 2.48577 12.0914 2.45216 12.0652C2.48577 12.039 2.51558 12.0077 2.54071 11.9723C2.56579 12.0077 2.5956 12.039 2.62926 12.0652ZM3.1056 10.0424L2.54066 11.3134L1.97573 10.0424C1.93855 9.95875 1.91891 9.86631 1.91891 9.77486C1.91891 9.64698 1.99307 9.53514 2.09934 9.5027C2.18568 9.47598 2.27474 9.49037 2.34355 9.54137C2.41237 9.59223 2.45183 9.67042 2.45183 9.75578C2.45183 9.86265 2.3833 9.898 2.35382 9.90826C2.30802 9.92439 2.26448 9.91506 2.25051 9.89715C2.2386 9.88206 2.23987 9.84076 2.28243 9.77378C2.30882 9.73248 2.29677 9.6775 2.25538 9.65115C2.2139 9.625 2.15919 9.63709 2.13276 9.67844C2.01932 9.85628 2.07984 9.96761 2.11115 10.0074C2.17546 10.0885 2.29644 10.1163 2.41213 10.076C2.4253 10.0715 2.43866 10.0658 2.45183 10.0591V10.2837L2.45169 10.2835C2.44902 10.2368 2.4103 10.1998 2.36305 10.1998C2.31398 10.1998 2.27423 10.2395 2.27423 10.2887C2.27423 10.3466 2.31473 10.4471 2.45183 10.4782V10.6439C2.45183 10.693 2.49154 10.7327 2.54066 10.7327C2.58979 10.7327 2.62949 10.693 2.62949 10.6439V10.4782C2.7666 10.4471 2.8071 10.3466 2.8071 10.2887C2.8071 10.2396 2.76749 10.1969 2.71846 10.1969C2.66938 10.1969 2.62982 10.2337 2.62982 10.2827C2.62977 10.2829 2.62949 10.2831 2.62949 10.2831L2.62944 10.0591C2.64262 10.0658 2.65597 10.0714 2.66915 10.076C2.78483 10.1162 2.90577 10.0885 2.97013 10.0073C3.00144 9.96761 3.06201 9.85623 2.94852 9.67839C2.92213 9.63691 2.86733 9.62481 2.8259 9.65111C2.78451 9.6775 2.77246 9.73248 2.79885 9.77373C2.84141 9.84072 2.84268 9.88201 2.83077 9.89711C2.81671 9.91497 2.77316 9.92439 2.72746 9.90822C2.69797 9.898 2.62944 9.86261 2.62944 9.75573C2.62944 9.67037 2.66891 9.59214 2.73772 9.54133C2.80668 9.49033 2.89593 9.47594 2.98194 9.50266C3.08816 9.53509 3.16236 9.64698 3.16236 9.77481C3.16246 9.86631 3.14286 9.95875 3.1056 10.0424ZM3.1056 8.75861C3.14277 8.84223 3.16241 8.93467 3.16241 9.02612C3.16241 9.154 3.08826 9.26584 2.98199 9.29828C2.89579 9.32519 2.80658 9.31061 2.73777 9.25961C2.66896 9.20875 2.62949 9.13056 2.62949 9.0452C2.62949 8.93833 2.69802 8.90298 2.72751 8.89272C2.77321 8.87673 2.8168 8.88592 2.83082 8.90383C2.84272 8.91892 2.84146 8.96022 2.7989 9.0272C2.77251 9.0685 2.78455 9.12344 2.82594 9.14983C2.86766 9.17598 2.92241 9.16403 2.94857 9.12255C3.06201 8.9447 3.00149 8.83338 2.97018 8.79363C2.90582 8.71244 2.78488 8.68469 2.66919 8.72495C2.65602 8.7295 2.64266 8.73517 2.62949 8.74188V8.51725C2.62949 8.5173 2.62963 8.51739 2.62963 8.51739C2.6323 8.56417 2.67102 8.60106 2.71827 8.60106C2.76735 8.60106 2.8071 8.56136 2.8071 8.51224C2.8071 8.4543 2.7666 8.3538 2.62949 8.32267V8.15697C2.62949 8.10789 2.58979 8.06814 2.54066 8.06814C2.49154 8.06814 2.45183 8.10785 2.45183 8.15697V8.32267C2.31473 8.3538 2.27423 8.4543 2.27423 8.51224C2.27423 8.56131 2.31383 8.60402 2.36287 8.60402C2.41194 8.60402 2.45151 8.56722 2.45151 8.51814C2.45155 8.518 2.45183 8.51777 2.45188 8.51763V8.74183C2.43871 8.73513 2.42535 8.72945 2.41218 8.72491C2.29649 8.68469 2.17551 8.71244 2.11119 8.79358C2.07988 8.83328 2.01932 8.94466 2.1328 9.1225C2.15919 9.1638 2.21399 9.1758 2.25543 9.14978C2.29682 9.12339 2.30887 9.06841 2.28248 9.02716C2.23991 8.96017 2.23865 8.91887 2.25055 8.90378C2.26452 8.88592 2.30807 8.87673 2.35387 8.89267C2.38335 8.90289 2.45188 8.93828 2.45188 9.04516C2.45188 9.13052 2.41241 9.20875 2.3436 9.25956C2.27465 9.31056 2.18559 9.32514 2.09938 9.29823C1.99316 9.2658 1.91896 9.15391 1.91896 9.02608C1.91896 8.93463 1.93855 8.84219 1.97577 8.75856L2.54071 7.4875L3.1056 8.75861ZM2.45212 6.73586C2.48572 6.70971 2.51554 6.67839 2.54066 6.643C2.56574 6.67839 2.5956 6.70966 2.62921 6.73586C2.5956 6.76202 2.56579 6.79333 2.54066 6.82872C2.51558 6.79333 2.48577 6.76202 2.45212 6.73586Z" fill="#FFE15A"/>
<path d="M13.191 13.1548C14.3717 13.1548 15.3288 12.1977 15.3288 11.017C15.3288 9.83638 14.3717 8.87927 13.191 8.87927C12.0103 8.87927 11.0532 9.83638 11.0532 11.017C11.0532 12.1977 12.0103 13.1548 13.191 13.1548Z" fill="#FFE15A"/>
<path d="M13.3515 8.29145C13.3515 8.38 13.2797 8.45181 13.1911 8.45181C13.1026 8.45181 13.0308 8.38 13.0308 8.29145C13.0308 8.20291 13.1911 7.81042 13.1911 7.81042C13.1911 7.81042 13.3515 8.20291 13.3515 8.29145Z" fill="#FFE15A"/>
<path d="M13.0308 13.743C13.0308 13.6545 13.1026 13.5826 13.1911 13.5826C13.2797 13.5826 13.3515 13.6545 13.3515 13.743C13.3515 13.8315 13.1911 14.224 13.1911 14.224C13.1911 14.224 13.0308 13.8316 13.0308 13.743Z" fill="#FFE15A"/>
<path d="M15.9172 11.1775C15.8286 11.1775 15.7568 11.1057 15.7568 11.0172C15.7568 10.9286 15.8286 10.8568 15.9172 10.8568C16.0057 10.8568 16.3982 11.0172 16.3982 11.0172C16.3982 11.0172 16.0057 11.1775 15.9172 11.1775Z" fill="#FFE15A"/>
<path d="M10.4649 10.8569C10.5535 10.8569 10.6253 10.9287 10.6253 11.0173C10.6253 11.1058 10.5535 11.1777 10.4649 11.1777C10.3764 11.1777 9.98389 11.0173 9.98389 11.0173C9.98389 11.0173 10.3764 10.8569 10.4649 10.8569Z" fill="#FFE15A"/>
<path d="M15.2323 9.2032C15.1696 9.26582 15.0682 9.26582 15.0055 9.2032C14.9428 9.14057 14.9429 9.03909 15.0055 8.97642C15.0681 8.91374 15.459 8.74963 15.459 8.74963C15.459 8.74963 15.2949 9.14057 15.2323 9.2032Z" fill="#FFE15A"/>
<path d="M11.1501 12.8314C11.2127 12.7688 11.3142 12.7688 11.3769 12.8314C11.4395 12.894 11.4395 12.9955 11.3769 13.0582C11.3142 13.1208 10.9233 13.2849 10.9233 13.2849C10.9233 13.2849 11.0875 12.8941 11.1501 12.8314Z" fill="#FFE15A"/>
<path d="M15.0055 13.0581C14.9428 12.9954 14.9428 12.894 15.0055 12.8313C15.0681 12.7686 15.1696 12.7687 15.2322 12.8313C15.2949 12.8939 15.459 13.2848 15.459 13.2848C15.459 13.2848 15.0681 13.1206 15.0055 13.0581Z" fill="#FFE15A"/>
<path d="M11.3769 8.97624C11.4395 9.03887 11.4395 9.14035 11.3769 9.20302C11.3143 9.26569 11.2128 9.26564 11.1501 9.20302C11.0874 9.14039 10.9233 8.74951 10.9233 8.74951C10.9233 8.74951 11.3143 8.91366 11.3769 8.97624Z" fill="#FFE15A"/>
<path d="M12.2961 8.43744C12.33 8.51928 12.2912 8.61303 12.2093 8.64692C12.1275 8.68082 12.0337 8.64196 11.9998 8.56011C11.9659 8.47827 11.9639 8.05432 11.9639 8.05432C11.9639 8.05432 12.2622 8.35559 12.2961 8.43744Z" fill="#FFE15A"/>
<path d="M14.0865 13.597C14.0526 13.5151 14.0914 13.4214 14.1733 13.3875C14.2551 13.3536 14.3488 13.3925 14.3827 13.4743C14.4166 13.5561 14.4187 13.9801 14.4187 13.9801C14.4187 13.9801 14.1203 13.6788 14.0865 13.597Z" fill="#FFE15A"/>
<path d="M15.7706 10.1223C15.6887 10.1562 15.595 10.1173 15.5611 10.0355C15.5272 9.95364 15.566 9.85988 15.6479 9.82599C15.7297 9.7921 16.1536 9.79004 16.1536 9.79004C16.1536 9.79004 15.8524 10.0884 15.7706 10.1223Z" fill="#FFE15A"/>
<path d="M10.6116 11.9122C10.6935 11.8783 10.7872 11.9171 10.8211 11.999C10.855 12.0808 10.8161 12.1746 10.7343 12.2085C10.6524 12.2424 10.2285 12.2444 10.2285 12.2444C10.2285 12.2444 10.5298 11.9461 10.6116 11.9122Z" fill="#FFE15A"/>
<path d="M14.3822 8.56017C14.3483 8.64202 14.2546 8.68083 14.1728 8.64699C14.0909 8.6131 14.0521 8.5193 14.086 8.4375C14.1198 8.35571 14.4181 8.05444 14.4181 8.05444C14.4181 8.05444 14.4161 8.47838 14.3822 8.56017Z" fill="#FFE15A"/>
<path d="M12.0003 13.4743C12.0342 13.3924 12.128 13.3536 12.2098 13.3875C12.2916 13.4214 12.3304 13.5152 12.2966 13.5969C12.2627 13.6788 11.9644 13.98 11.9644 13.98C11.9644 13.98 11.9664 13.5561 12.0003 13.4743Z" fill="#FFE15A"/>
<path d="M15.6479 12.2084C15.566 12.1745 15.5272 12.0807 15.5611 11.9989C15.5949 11.9171 15.6887 11.8783 15.7705 11.9121C15.8523 11.946 16.1536 12.2443 16.1536 12.2443C16.1536 12.2443 15.7296 12.2424 15.6479 12.2084Z" fill="#FFE15A"/>
<path d="M10.7342 9.82607C10.8161 9.85996 10.8549 9.95375 10.8211 10.0356C10.7872 10.1173 10.6934 10.1562 10.6116 10.1224C10.5298 10.0885 10.2285 9.79016 10.2285 9.79016C10.2285 9.79016 10.6525 9.79213 10.7342 9.82607Z" fill="#FFE15A"/>
<path d="M12.817 8.31235C12.8343 8.3992 12.7779 8.48362 12.691 8.50087C12.6041 8.51817 12.5197 8.46178 12.5024 8.37488C12.4851 8.28802 12.5659 7.87183 12.5659 7.87183C12.5659 7.87183 12.7997 8.22549 12.817 8.31235Z" fill="#FFE15A"/>
<path d="M13.5656 13.7219C13.5483 13.6351 13.6047 13.5506 13.6916 13.5334C13.7785 13.5161 13.8629 13.5725 13.8801 13.6594C13.8974 13.7463 13.8167 14.1625 13.8167 14.1625C13.8167 14.1625 13.5829 13.8088 13.5656 13.7219Z" fill="#FFE15A"/>
<path d="M15.8958 10.6425C15.8089 10.6598 15.7245 10.6034 15.7072 10.5165C15.6899 10.4296 15.7463 10.3452 15.8332 10.328C15.9201 10.3107 16.3363 10.3914 16.3363 10.3914C16.3363 10.3914 15.9826 10.6253 15.8958 10.6425Z" fill="#FFE15A"/>
<path d="M10.4864 11.3918C10.5733 11.3745 10.6577 11.4309 10.675 11.5178C10.6923 11.6047 10.6359 11.6891 10.549 11.7063C10.4621 11.7236 10.0459 11.6429 10.0459 11.6429C10.0459 11.6429 10.3996 11.409 10.4864 11.3918Z" fill="#FFE15A"/>
<path d="M14.8386 8.83979C14.7894 8.91343 14.6898 8.93321 14.6162 8.884C14.5425 8.83478 14.5228 8.73522 14.572 8.66158C14.6212 8.58794 14.9725 8.35071 14.9725 8.35071C14.9725 8.35071 14.8878 8.76611 14.8386 8.83979Z" fill="#FFE15A"/>
<path d="M11.5436 13.1947C11.5928 13.121 11.6924 13.1013 11.766 13.1505C11.8397 13.1996 11.8594 13.2993 11.8102 13.3729C11.761 13.4465 11.4097 13.6838 11.4097 13.6838C11.4097 13.6838 11.4944 13.2684 11.5436 13.1947Z" fill="#FFE15A"/>
<path d="M15.3681 12.6649C15.2945 12.6157 15.2747 12.5161 15.3239 12.4425C15.3732 12.3688 15.4727 12.3491 15.5464 12.3983C15.62 12.4475 15.8573 12.7988 15.8573 12.7988C15.8573 12.7988 15.4418 12.7141 15.3681 12.6649Z" fill="#FFE15A"/>
<path d="M11.014 9.36951C11.0877 9.41868 11.1074 9.51829 11.0582 9.59193C11.009 9.66557 10.9094 9.68535 10.8358 9.63613C10.7621 9.58692 10.5249 9.2356 10.5249 9.2356C10.5249 9.2356 10.9404 9.32034 11.014 9.36951Z" fill="#FFE15A"/>
<path d="M11.8102 8.66165C11.8594 8.73529 11.8396 8.83485 11.766 8.88407C11.6924 8.93329 11.5928 8.91346 11.5436 8.83987C11.4944 8.76623 11.4097 8.35083 11.4097 8.35083C11.4097 8.35083 11.7611 8.58806 11.8102 8.66165Z" fill="#FFE15A"/>
<path d="M14.5724 13.3729C14.5233 13.2992 14.543 13.1997 14.6166 13.1504C14.6902 13.1013 14.7899 13.1211 14.8391 13.1946C14.8883 13.2683 14.973 13.6837 14.973 13.6837C14.973 13.6837 14.6217 13.4465 14.5724 13.3729Z" fill="#FFE15A"/>
<path d="M15.5468 9.63614C15.4732 9.68531 15.3736 9.66553 15.3244 9.59193C15.2752 9.5183 15.295 9.41873 15.3686 9.36952C15.4422 9.32034 15.8577 9.2356 15.8577 9.2356C15.8577 9.2356 15.6205 9.58697 15.5468 9.63614Z" fill="#FFE15A"/>
<path d="M10.8357 12.3982C10.9094 12.3491 11.0089 12.3689 11.0582 12.4425C11.1073 12.5161 11.0876 12.6157 11.014 12.6649C10.9403 12.7141 10.5249 12.7988 10.5249 12.7988C10.5249 12.7988 10.7621 12.4474 10.8357 12.3982Z" fill="#FFE15A"/>
<path d="M13.8801 8.37488C13.8628 8.46174 13.7785 8.51818 13.6916 8.50088C13.6048 8.48359 13.5483 8.39921 13.5656 8.31235C13.5829 8.22549 13.8167 7.87183 13.8167 7.87183C13.8167 7.87183 13.8974 8.28803 13.8801 8.37488Z" fill="#FFE15A"/>
<path d="M12.5024 13.6594C12.5197 13.5725 12.6041 13.5161 12.691 13.5334C12.7778 13.5507 12.8343 13.6351 12.817 13.7219C12.7997 13.8088 12.5658 14.1624 12.5658 14.1624C12.5658 14.1624 12.4852 13.7462 12.5024 13.6594Z" fill="#FFE15A"/>
<path d="M15.8332 11.7063C15.7464 11.689 15.6899 11.6047 15.7072 11.5178C15.7245 11.4309 15.8089 11.3745 15.8957 11.3918C15.9826 11.4091 16.3363 11.6429 16.3363 11.6429C16.3363 11.6429 15.9201 11.7236 15.8332 11.7063Z" fill="#FFE15A"/>
<path d="M10.549 10.3282C10.6358 10.3455 10.6923 10.4299 10.675 10.5168C10.6577 10.6036 10.5733 10.6601 10.4864 10.6428C10.3996 10.6255 10.0459 10.3916 10.0459 10.3916C10.0459 10.3916 10.4621 10.311 10.549 10.3282Z" fill="#FFE15A"/>
<path d="M18.22 11.5798C18.1574 11.5535 18.0858 11.5837 18.0597 11.6459C18.0597 11.6462 18.0597 11.6462 18.0597 11.6462C18.0592 11.6474 18.0568 11.6531 18.0526 11.663C17.9599 11.8794 17.7682 12.1958 17.5746 12.4934C17.7549 11.913 17.9198 11.293 17.9313 11.2494C17.9485 11.1843 17.9099 11.1174 17.8449 11.0998C17.7798 11.0823 17.7129 11.1202 17.6947 11.185C17.6105 11.4865 17.4384 11.8833 17.2797 12.2192C17.3088 11.8447 17.3143 11.4977 17.3146 11.4726C17.3156 11.4062 17.2636 11.3514 17.1973 11.3483C17.1349 11.3502 17.0747 11.3957 17.0698 11.462C16.9128 13.6214 14.8349 14.5874 14.6326 14.6763C14.5268 14.6868 14.0337 14.7424 13.5862 14.8978C13.5354 14.9154 13.4922 14.9331 13.4492 14.9506C13.4332 14.9446 13.4161 14.9412 13.398 14.9423C12.0245 15.0417 10.9293 14.4782 10.1422 13.2711C9.54748 12.359 9.36097 11.4016 9.35914 11.3921C9.34657 11.3255 9.28283 11.2826 9.21598 11.2944C9.14942 11.3071 9.10569 11.371 9.11829 11.4376C9.12326 11.464 9.20511 11.8819 9.43048 12.4319C9.12894 11.9558 8.9188 11.3792 8.84483 11.0789C8.84333 11.0729 8.83948 11.0683 8.83723 11.0628C8.83376 11.0543 8.83086 11.0458 8.82575 11.0384C8.82214 11.0332 8.81741 11.0294 8.81314 11.0249C8.80644 11.0178 8.80001 11.0108 8.79181 11.0056C8.78712 11.0025 8.78187 11.001 8.77676 10.9986C8.76772 10.9944 8.75886 10.9902 8.74878 10.9883C8.7418 10.9869 8.73467 10.9878 8.72741 10.9877C8.72005 10.9876 8.71311 10.9857 8.70556 10.987C8.70392 10.9873 8.70266 10.9884 8.70102 10.9888C8.69942 10.9891 8.69792 10.9886 8.69633 10.989C8.68977 10.9906 8.68475 10.9947 8.67875 10.9973C8.67111 11.0006 8.66328 11.0031 8.65658 11.0077C8.64997 11.0123 8.64505 11.0182 8.63956 11.0238C8.63408 11.0295 8.62836 11.0344 8.62405 11.0409C8.61969 11.0476 8.61734 11.055 8.61425 11.0624C8.6113 11.0695 8.60787 11.0763 8.60633 11.084C8.60473 11.0919 8.60544 11.1001 8.60548 11.1084C8.60548 11.115 8.60366 11.1213 8.60483 11.1281C8.6053 11.131 8.60623 11.1339 8.60675 11.1367V11.1372C8.60689 11.1377 8.60708 11.1384 8.60722 11.139C8.68306 11.5858 8.86381 12.049 9.02726 12.4023C8.76772 12.1078 8.55083 11.7684 8.47395 11.5675C8.47175 11.5616 8.4673 11.5576 8.4643 11.5523C8.45975 11.5442 8.45577 11.5359 8.44963 11.5292C8.44527 11.5244 8.43997 11.5213 8.435 11.5173C8.42755 11.5113 8.42047 11.5053 8.41184 11.5012C8.40631 11.4985 8.40031 11.4977 8.39445 11.4959C8.38541 11.4931 8.37664 11.4901 8.36703 11.4895C8.35949 11.489 8.35199 11.4909 8.34434 11.4919C8.33727 11.4928 8.33028 11.4919 8.32325 11.4941C8.32189 11.4946 8.32095 11.4956 8.31969 11.4961C8.31838 11.4965 8.31706 11.4962 8.31575 11.4968C8.30909 11.4993 8.30436 11.5042 8.29841 11.5077C8.29142 11.5118 8.28397 11.5153 8.27802 11.5206C8.27192 11.5261 8.2677 11.5329 8.26292 11.5394C8.25838 11.5456 8.25331 11.551 8.24994 11.5579C8.24642 11.5651 8.24511 11.5728 8.2431 11.5806C8.24108 11.5881 8.23841 11.5951 8.23789 11.6031C8.23733 11.611 8.2393 11.6189 8.24033 11.6269C8.24122 11.6339 8.24028 11.6408 8.24244 11.6476C8.37584 12.0779 8.69666 12.5899 8.948 12.9505C8.73856 12.7891 8.58463 12.6146 8.53995 12.5619C8.53513 12.5562 8.53039 12.5504 8.52556 12.5447C8.48234 12.4927 8.40599 12.4853 8.35363 12.5277C8.30145 12.5703 8.29325 12.647 8.33544 12.6993C8.33774 12.7022 8.34692 12.7137 8.3623 12.7317C8.54623 12.9505 8.74662 13.1548 8.92817 13.3272L8.67983 13.2214C8.6232 13.197 8.55664 13.219 8.52566 13.2728C8.49463 13.3268 8.50864 13.395 8.55833 13.4323C8.58252 13.4503 9.0223 13.7788 9.40301 13.973C9.36711 13.9752 9.32497 13.9725 9.27781 13.9689C9.22025 13.9634 9.16362 14.0046 9.14961 14.063C9.13583 14.1217 9.16648 14.1816 9.22217 14.2045C9.23154 14.2084 9.34756 14.2562 9.49081 14.3072C9.45739 14.3209 9.43081 14.3489 9.41979 14.3853C9.40329 14.4397 9.4265 14.4986 9.47581 14.5268C9.48865 14.5342 9.66195 14.6336 9.8764 14.7217C9.87068 14.7306 9.86599 14.7401 9.86248 14.7507C9.8457 14.8021 9.86487 14.8587 9.90954 14.8896C9.94676 14.9152 10.7795 15.4803 11.752 15.4803C11.8159 15.4803 11.8804 15.4779 11.9453 15.4726C12.0127 15.4673 12.0631 15.4082 12.0577 15.3407C12.0523 15.2731 11.9938 15.2221 11.9257 15.2284C11.3147 15.2782 10.7261 15.0488 10.376 14.8735C10.4223 14.8622 10.4488 14.8519 10.4554 14.8493C10.5094 14.8273 10.5406 14.7705 10.53 14.7133C10.5195 14.6561 10.4702 14.6141 10.4119 14.6129C10.2697 14.61 10.0729 14.5408 9.90335 14.4666C9.96738 14.4345 10.0048 14.4038 10.0081 14.4012C10.045 14.3703 10.0605 14.321 10.048 14.2745C10.0353 14.2283 9.99668 14.1936 9.94934 14.1859C9.89726 14.1773 9.83234 14.1605 9.76437 14.1399C9.83046 14.1019 9.85859 14.06 9.86937 14.0386C9.88639 14.0047 9.88676 13.9649 9.87045 13.9306C9.85404 13.8964 9.82282 13.8717 9.78565 13.8638C9.75359 13.8569 9.71726 13.8451 9.67803 13.8298C9.6852 13.8226 9.69181 13.8145 9.69715 13.8052C9.72837 13.7522 9.71548 13.6842 9.66701 13.6462C9.66448 13.6442 9.56932 13.5696 9.42523 13.4453C9.44811 13.4369 9.46831 13.4213 9.48293 13.4003C9.51382 13.3557 9.51172 13.2961 9.47778 13.2539C9.47506 13.2505 9.37976 13.1307 9.24842 12.9488C9.29178 12.9824 9.33509 13.0168 9.3784 13.0447C9.39879 13.0576 9.42186 13.0641 9.44473 13.0641C9.47576 13.0641 9.50637 13.0523 9.52995 13.0296C9.53965 13.0202 9.54725 13.0094 9.55325 12.9979C9.62764 13.0774 9.70578 13.1495 9.78785 13.2111C9.79854 13.2191 9.81153 13.2189 9.82353 13.223C9.85831 13.2813 9.89449 13.3397 9.93246 13.3981C10.677 14.5436 11.7267 15.1572 12.9858 15.1941C12.8699 15.2645 12.744 15.3372 12.5447 15.4148C12.5012 15.4318 12.4628 15.4488 12.4242 15.4658C12.4055 15.4695 12.388 15.4762 12.3735 15.4878C12.0257 15.6488 11.8817 15.8079 11.8233 15.9192C11.7649 16.0298 11.8152 16.1433 11.8864 16.2022C11.9086 16.2204 11.9367 16.2297 11.965 16.2297C11.9844 16.2297 12.0038 16.2254 12.0213 16.2165C12.0647 16.195 12.0937 16.1492 12.0918 16.1011C12.0968 16.0957 12.1181 16.0779 12.1849 16.0757C12.2336 16.0717 12.3361 16.0827 12.4557 16.0922C12.5695 16.1016 12.706 16.1122 12.8512 16.1197C12.7604 16.2255 12.6549 16.3482 12.6549 16.3482C12.6232 16.3851 12.6162 16.4373 12.6373 16.4811C12.6585 16.5252 12.7041 16.5525 12.752 16.5508C12.8489 16.5474 12.9147 16.5455 12.9579 16.5446C12.9956 16.5939 13.0419 16.6135 13.0717 16.6212C13.156 16.6427 13.24 16.609 13.3033 16.569C13.3512 16.6035 13.3991 16.6181 13.4371 16.6236C13.5227 16.6353 13.602 16.6104 13.6593 16.5822C13.7187 16.6205 13.7769 16.6303 13.8212 16.6303C13.8218 16.6303 13.8225 16.6303 13.8232 16.6303C13.9189 16.6298 14.0026 16.5836 14.0618 16.5383C14.1142 16.5695 14.1642 16.5795 14.2029 16.5812C14.2906 16.5843 14.3634 16.5506 14.4118 16.5189C14.5846 16.5536 14.7335 16.4722 14.8319 16.3824C14.8768 16.4085 14.9195 16.415 14.9536 16.4133C15.0411 16.4102 15.1077 16.357 15.1505 16.3094C15.3464 16.3331 15.487 16.2969 15.5682 16.2005C15.6125 16.148 15.6305 16.0889 15.6354 16.035C16.1789 16.0319 16.228 15.7352 16.232 15.6985C16.2356 15.6652 16.2255 15.632 16.2038 15.6064C16.1822 15.5808 16.151 15.5649 16.1176 15.563L14.6928 15.4773C14.6332 15.473 14.58 15.513 14.5661 15.5712C14.5659 15.5722 14.5416 15.6627 14.4656 15.735C14.3633 15.8327 14.1986 15.8842 14.0195 15.9116C14.0202 15.8952 14.0179 15.8785 14.0116 15.8622C13.9872 15.799 13.9161 15.7683 13.8531 15.792C13.5589 15.9062 13.0827 15.8918 12.7101 15.8659C12.7673 15.8192 12.8361 15.773 12.8911 15.7428C12.9375 15.7172 12.9625 15.6647 12.9526 15.6126C12.9455 15.5746 12.9181 15.5482 12.885 15.5313C12.9886 15.479 13.0735 15.4284 13.1541 15.3793C13.294 15.2936 13.4261 15.2129 13.6667 15.1293C14.1313 14.9679 14.6689 14.9189 14.6743 14.9183C14.6865 14.9174 14.6985 14.9143 14.7098 14.9097C14.7289 14.9018 16.2453 14.2665 16.9597 12.8008C16.9504 12.8451 16.9403 12.8856 16.9294 12.921C16.9108 12.9813 16.9409 13.0457 16.9991 13.0701C17.0441 13.089 17.0952 13.0792 17.1299 13.0471C17.0847 13.1662 17.0439 13.2598 17.0106 13.3151C16.9766 13.3714 16.993 13.4444 17.0477 13.4808C17.0605 13.4892 17.0743 13.4949 17.0884 13.4983C17.0331 13.5792 16.977 13.6558 16.9211 13.726C16.8839 13.7727 16.886 13.8393 16.9249 13.8833C16.8289 13.9839 16.7438 14.0668 16.6791 14.1195C16.6369 14.1537 16.6231 14.2109 16.6425 14.2598C16.5801 14.2955 16.5289 14.3206 16.4933 14.3314C16.4337 14.3493 16.3971 14.4094 16.4084 14.4707C16.4142 14.5031 16.4324 14.5304 16.4575 14.5483C16.3826 14.5684 16.3005 14.5878 16.2115 14.6055C16.1613 14.6155 16.1226 14.6556 16.1144 14.706C16.1063 14.7566 16.1303 14.8069 16.1746 14.8322C16.1784 14.8344 16.2203 14.8581 16.2844 14.8854C16.0472 14.9809 15.6238 15.1057 14.9288 15.1742C14.8615 15.1809 14.8122 15.241 14.8189 15.3083C14.8255 15.3756 14.8837 15.4223 14.953 15.4184C16.2722 15.288 16.6795 14.9578 16.6962 14.9436C16.7342 14.9117 16.7493 14.8598 16.7342 14.8124C16.7242 14.781 16.7022 14.7557 16.6739 14.741C17.0953 14.6084 17.2762 14.4615 17.2857 14.4537C17.3319 14.4153 17.3436 14.349 17.3131 14.2971C17.2825 14.2451 17.2187 14.2226 17.163 14.2451C17.1473 14.2511 17.1223 14.2573 17.0907 14.2635C17.3735 14.0698 17.6737 13.8391 17.8058 13.7362C17.829 13.719 17.8501 13.7024 17.8687 13.6868C17.9199 13.6438 17.9271 13.5675 17.8848 13.5157C17.8428 13.464 17.7662 13.4553 17.7138 13.4967C17.6947 13.5118 17.6747 13.5274 17.6542 13.5434C17.5932 13.5887 17.5153 13.6399 17.4302 13.6926C17.7512 13.3281 18.0744 12.933 18.1667 12.8195C18.1751 12.8092 18.1833 12.7989 18.1917 12.7886C18.2341 12.7359 18.2258 12.6588 18.1731 12.6165C18.1203 12.5734 18.0431 12.5822 18.0008 12.6346L18.0006 12.6349L18.0005 12.6352C17.9982 12.6378 17.9878 12.6508 17.9703 12.6723C17.8736 12.7904 17.7718 12.9046 17.6714 13.0114C17.9984 12.4187 18.2459 11.8354 18.2822 11.7489C18.2835 11.7458 18.2848 11.7428 18.2861 11.7396C18.312 11.6776 18.2825 11.6057 18.22 11.5798ZM12.4736 15.7126L12.5071 15.717C12.466 15.7554 12.4326 15.7984 12.406 15.8429C12.3478 15.8382 12.295 15.834 12.2536 15.8322C12.3107 15.795 12.3841 15.7545 12.4736 15.7126Z" fill="#FFE15A"/>
</g>
<defs>
<clipPath id="clip0_105_7452">
<rect width="24" height="24" fill="white" transform="translate(0.5)"/>
</clipPath>
</defs>
</svg>
